<svg xmlns="http://www.w3.org/2000/svg" style="display:none">
<symbol id="user" viewBox="0 0 30 30"><path d="M 15 3 C 11.433 3 9 5.6163437 9 9.4023438 C 9 11.987179 10.301234 14.813954 12 16.496094 L 12 19 C 11 22 3 20 3 27 L 27 27 C 27 20 19 22 18 19 L 18 16.496094 C 19.698766 14.813954 21 11.987179 21 9.4023438 C 21 5.6163438 18.567 3 15 3 z"></path></symbol>
<symbol id="heath" viewBox="0 0 30 30"><path d="M 9.5449219 4 C 5.9299219 4 3 6.9299219 3 10.544922 C 3 16.837321 10.298975 22.849799 13.708984 25.527344 A 2 2 0 0 0 13.71875 25.535156 C 13.742115 25.5535 13.773881 25.579629 13.796875 25.597656 L 13.798828 25.595703 A 2 2 0 0 0 15 26 A 2 2 0 0 0 16.203125 25.595703 L 16.203125 25.597656 C 16.209855 25.59238 16.219801 25.585381 16.226562 25.580078 C 16.231704 25.576045 16.23898 25.570455 16.244141 25.566406 A 2 2 0 0 0 16.263672 25.548828 C 19.663109 22.880904 27 16.852336 27 10.544922 C 27 6.9299219 24.070078 4 20.455078 4 C 17.000078 4 15 7 15 7 C 15 7 12.999922 4 9.5449219 4 z"></path></symbol>
<symbol id="card" viewBox="0 0 30 30"><path d="M 2 2 A 1.0001 1.0001 0 1 0 2 4 L 3.8789062 4 C 4.1048086 4 4.2933102 4.1414634 4.3574219 4.359375 L 8.6191406 18.847656 C 8.993174 20.11937 10.169409 21 11.496094 21 L 22.472656 21 C 23.821072 21 25.011657 20.088693 25.367188 18.789062 L 27.964844 9.2636719 A 1.0001 1.0001 0 0 0 27 8 L 7.5136719 8 L 6.2773438 3.7949219 A 1.0001 1.0001 0 0 0 6.2753906 3.7949219 C 5.9634991 2.7348335 4.9830041 2 3.8789062 2 L 2 2 z M 12 23 A 2 2 0 0 0 10 25 A 2 2 0 0 0 12 27 A 2 2 0 0 0 14 25 A 2 2 0 0 0 12 23 z M 22 23 A 2 2 0 0 0 20 25 A 2 2 0 0 0 22 27 A 2 2 0 0 0 24 25 A 2 2 0 0 0 22 23 z"></path></symbol>
  
<!--Categories-->
<symbol id="smartphone_table" viewBox="0 0 30 30"><path d="M 6 4 C 4.895 4 4 4.895 4 6 L 4 22 C 4 23.105 4.895 24 6 24 L 14 24 L 14 12 C 14 9.791 15.791 8 18 8 L 18 6 C 18 4.895 17.105 4 16 4 L 6 4 z M 18 10 C 16.895 10 16 10.895 16 12 L 16 24 C 16 25.105 16.895 26 18 26 L 24 26 C 25.105 26 26 25.105 26 24 L 26 12 C 26 10.895 25.105 10 24 10 L 18 10 z M 11 20 C 11.552 20 12 20.448 12 21 C 12 21.552 11.552 22 11 22 C 10.448 22 10 21.552 10 21 C 10 20.448 10.448 20 11 20 z M 21 22 C 21.552 22 22 22.448 22 23 C 22 23.552 21.552 24 21 24 C 20.448 24 20 23.552 20 23 C 20 22.448 20.448 22 21 22 z"></path></symbol>
<symbol id="computer" viewBox="0 0 30 30"><path d="M 5 6 C 3.895 6 3 6.895 3 8 L 3 20 C 3 21.105 3.895 22 5 22 L 25 22 C 26.105 22 27 21.105 27 20 L 27 8 C 27 6.895 26.105 6 25 6 L 5 6 z M 10 24 A 1.0001 1.0001 0 1 0 10 26 L 20 26 A 1.0001 1.0001 0 1 0 20 24 L 10 24 z"></path></symbol>
<symbol id="washing_machine" viewBox="0 0 30 30"><path d="M 7 3 C 5.895 3 5 3.895 5 5 L 5 25 C 5 26.105 5.895 27 7 27 L 23 27 C 24.105 27 25 26.105 25 25 L 25 5 C 25 3.895 24.105 3 23 3 L 7 3 z M 18 5 C 18.552 5 19 5.448 19 6 C 19 6.552 18.552 7 18 7 C 17.448 7 17 6.552 17 6 C 17 5.448 17.448 5 18 5 z M 22 5 C 22.552 5 23 5.448 23 6 C 23 6.552 22.552 7 22 7 C 21.448 7 21 6.552 21 6 C 21 5.448 21.448 5 22 5 z M 15 9 C 18.866 9 22 12.134 22 16 C 22 19.866 18.866 23 15 23 C 11.134 23 8 19.866 8 16 C 8 12.134 11.134 9 15 9 z M 10.421875 14 C 10.153875 14.613 10 15.288 10 16 C 10 18.761 12.239 21 15 21 C 17.761 21 20 18.761 20 16 C 20 15.288 19.846125 14.613 19.578125 14 C 19.578125 14 18.801547 14.486328 17.810547 14.486328 C 16.818547 14.486328 15.893 14 15 14 C 14.107 14 13.556 14.486328 12.5 14.486328 C 11.444 14.486328 10.421875 14 10.421875 14 z"></path></symbol>
<symbol id="car" viewBox="0 0 30 30"><path d="M26.206,12.559l-2.058-5.88C23.587,5.077,22.069,4,20.371,4H9.629C7.931,4,6.413,5.077,5.853,6.678l-2.058,5.88 C2.696,13.281,2,14.53,2,15.904V23c0,1.105,0.895,2,2,2s2-0.895,2-2v-1.261c0,0,5.281,0.261,9,0.261s9-0.261,9-0.261V23 c0,1.105,0.895,2,2,2s2-0.895,2-2v-7.096C28,14.53,27.303,13.281,26.206,12.559z M6.595,10.613l1.146-3.274 C8.022,6.537,8.779,6,9.629,6h10.742c0.85,0,1.607,0.537,1.888,1.339l1.146,3.274c0.18,0.515-0.249,1.034-0.788,0.947 C20.656,11.243,18.135,11,15,11c-3.135,0-5.656,0.243-7.617,0.56C6.844,11.647,6.415,11.128,6.595,10.613z M6.5,18 C5.672,18,5,17.328,5,16.5S5.672,15,6.5,15S8,15.672,8,16.5S7.328,18,6.5,18z M18,17h-6c-0.552,0-1-0.448-1-1c0-0.552,0.448-1,1-1h6 c0.552,0,1,0.448,1,1C19,16.552,18.552,17,18,17z M23.5,18c-0.828,0-1.5-0.672-1.5-1.5s0.672-1.5,1.5-1.5s1.5,0.672,1.5,1.5 S24.328,18,23.5,18z"></path></symbol>
<symbol id="clothes" viewBox="0 0 30 30"><path d="M 9.484375 4 C 7.893375 4 6.3671875 4.6328125 5.2421875 5.7578125 L 1.2929688 9.7070312 C 0.90196875 10.098031 0.90196875 10.731094 1.2929688 11.121094 L 3.8789062 13.707031 C 4.2699063 14.098031 4.9029687 14.098031 5.2929688 13.707031 L 7 12 L 7 24 C 7 25.105 7.895 26 9 26 L 15 26 L 21 26 C 22.105 26 23 25.105 23 24 L 23 12 L 24.707031 13.707031 C 25.098031 14.098031 25.731094 14.098031 26.121094 13.707031 L 28.707031 11.121094 C 29.098031 10.731094 29.098031 10.098031 28.707031 9.7070312 L 24.757812 5.7578125 C 23.632812 4.6328125 22.106625 4 20.515625 4 L 20 4 L 19 4 L 11 4 L 10 4 L 9.484375 4 z M 11.751953 6 L 18.248047 6 C 17.664172 7 16.6645 8 15 8 C 13.3355 8 12.335828 7 11.751953 6 z"></path></symbol>
<symbol id="sofa" viewBox="0 0 30 30"><path d="M 7 5 C 4.791 5 3 6.791 3 9 L 3 11 C 5.209 11 7 12.791 7 15 L 7 17 L 23 17 L 23 15 C 23 12.791 24.791 11 27 11 L 27 9 C 27 6.791 25.209 5 23 5 L 7 5 z M 3 13 C 1.895 13 1 13.895 1 15 L 1 21 L 1 24 L 1 25 A 1.0001 1.0001 0 1 0 3 25 L 3 24 L 27 24 L 27 25 A 1.0001 1.0001 0 1 0 29 25 L 29 21 L 29 15 C 29 13.895 28.105 13 27 13 C 25.895 13 25 13.895 25 15 L 25 19 L 5 19 L 5 15 C 5 13.895 4.105 13 3 13 z"></path></symbol>
<symbol id="ball" viewBox="0 0 30 30"><path d="M 15 3 C 8.3844276 3 3 8.3844276 3 15 C 3 21.615572 8.3844276 27 15 27 C 21.615572 27 27 21.615572 27 15 C 27 8.3844276 21.615572 3 15 3 z M 11.667969 5.578125 L 15 8 L 18.332031 5.578125 C 20.175074 6.2275941 21.765682 7.396735 22.931641 8.9160156 L 21.658203 12.837891 L 24.986328 15.255859 C 24.935725 17.262074 24.305868 19.11932 23.246094 20.662109 L 19.113281 20.662109 L 17.839844 24.585938 C 16.939499 24.851084 15.987771 25 15 25 C 14.012229 25 13.060501 24.851084 12.160156 24.585938 L 10.884766 20.664062 L 6.7558594 20.664062 C 5.6951565 19.120827 5.0642994 17.263053 5.0136719 15.255859 L 8.34375 12.835938 L 7.0683594 8.9160156 C 8.2343182 7.396735 9.8249256 6.2275941 11.667969 5.578125 z M 15 10 L 10.267578 13.4375 L 12.076172 19 L 17.923828 19 L 19.732422 13.4375 L 15 10 z"></path></symbol>
<symbol id="animal" viewBox="0 0 30 30"><path d="M 20 2 L 20 5 L 17.605469 8.8242188 L 23 12.195312 L 24 10 L 27 10 A 1 1 0 0 0 27.869141 9.4921875 L 27.876953 9.4785156 A 1 1 0 0 0 27.923828 9.3828125 L 28.882812 7.4707031 L 28.882812 7.46875 A 1 1 0 0 0 29 7 A 1 1 0 0 0 28.400391 6.0839844 L 28.400391 6.0820312 L 26 5 C 26 5 25.742297 4 24.279297 4 L 22 4 C 22 4 21.5 2.528 20 2 z M 3.9550781 8.9863281 A 1.0001 1.0001 0 0 0 3.0253906 10.224609 C 3.405373 11.869179 4.4745004 12.819306 5.3769531 13.357422 C 5.1940954 13.74427 5.0621623 14.15958 5.0195312 14.607422 C 5.0000215 14.81159 5.0151976 15.00748 5.0253906 15.205078 A 1.50015 1.50015 0 0 0 5 15.5 C 5 16.997383 5.2588464 18.044945 5.2617188 18.681641 C 5.2645887 19.318336 5.2306828 19.638542 4.3945312 20.550781 A 1.50015 1.50015 0 0 0 4 21.564453 L 4 26.5 A 1.50015 1.50015 0 1 0 7 26.5 L 7 22.482422 C 7 22.482422 9.3377521 21.027144 10.4375 19 L 19 19 L 19 21.4375 A 1.50015 1.50015 0 0 0 19.029297 21.728516 L 20.029297 26.791016 A 1.50015 1.50015 0 1 0 22.970703 26.208984 L 22 21.291016 L 22 18.722656 C 22.595634 18.376387 23 17.738946 23 17 L 23 14.554688 L 16.248047 10.333984 C 15.609047 10.754984 14.853734 11 14.052734 11 L 9.171875 11 C 8.2495526 11 7.3809378 11.310764 6.6699219 11.822266 C 6.0972721 11.554469 5.2507816 10.970668 4.9746094 9.7753906 A 1.0001 1.0001 0 0 0 3.9550781 8.9863281 z M 11.527344 21 C 10.824344 21.95 9.9954062 22.721484 9.3164062 23.271484 L 10.03125 26.798828 C 10.17425 27.509828 10.800047 28 11.498047 28 C 11.597047 28 11.697828 27.990703 11.798828 27.970703 C 12.609828 27.806703 13.135703 27.013172 12.970703 26.201172 L 11.931641 21 L 11.527344 21 z"></path></symbol>
<symbol id="plush" viewBox="0 0 30 30"><path d="M 15 4 C 13.530727 4 11.931582 4.5504344 10.492188 5.5820312 C 9.5997439 5.2652688 8.4727013 5.0182176 7.0996094 5.0058594 A 1 1 0 0 0 7 5 A 1 1 0 0 0 6 6 A 1 1 0 0 0 6.0136719 6.1699219 C 6.0484956 7.5917984 6.4983168 8.9876759 6.96875 10.058594 C 6.5942621 10.949543 6.3134259 11.931538 6.15625 13 L 5.5 13 C 4.119 13 3 14.119 3 15.5 C 3 16.881 4.119 18 5.5 18 L 6 18 L 6 20.388672 C 5.3857954 21.092531 5 21.999835 5 23 C 5 25.197294 6.8027056 27 9 27 C 10.133794 27 11.156498 26.51454 11.886719 25.748047 C 12.785244 25.90183 13.803857 26 15 26 C 16.196143 26 17.214756 25.90183 18.113281 25.748047 C 18.843502 26.51454 19.866206 27 21 27 C 23.197294 27 25 25.197294 25 23 C 25 21.999835 24.614205 21.092531 24 20.388672 L 24 18 L 24.5 18 C 25.881 18 27 16.881 27 15.5 C 27 14.119 25.881 13 24.5 13 L 23.84375 13 C 23.686574 11.931538 23.405738 10.949543 23.03125 10.058594 C 23.506237 8.9773091 23.963446 7.564965 23.990234 6.1289062 A 1 1 0 0 0 24 6 A 1 1 0 0 0 23 5 A 1 1 0 0 0 22.888672 5.0058594 C 21.520207 5.0193561 20.398028 5.2660598 19.507812 5.5820312 C 18.068418 4.5504344 16.469273 4 15 4 z M 11 10 C 12.105 10 13 10.895 13 12 C 13 13.105 12.105 14 11 14 C 9.895 14 9 13.105 9 12 C 9 10.895 9.895 10 11 10 z M 19 10 C 20.105 10 21 10.895 21 12 C 21 13.105 20.105 14 19 14 C 17.895 14 17 13.105 17 12 C 17 10.895 17.895 10 19 10 z M 15 14 C 16.105 14 17 14.448 17 15 C 17 15.552 16.105 16 15 16 C 13.895 16 13 15.552 13 15 C 13 14.448 13.895 14 15 14 z M 9 21 C 10.116414 21 11 21.883586 11 23 C 11 24.116414 10.116414 25 9 25 C 7.8835859 25 7 24.116414 7 23 C 7 21.883586 7.8835859 21 9 21 z M 21 21 C 22.116414 21 23 21.883586 23 23 C 23 24.116414 22.116414 25 21 25 C 19.883586 25 19 24.116414 19 23 C 19 21.883586 19.883586 21 21 21 z"></path></symbol>
<symbol id="food" viewBox="0 0 30 30"><path d="M 4 4 C 4 4 2 8 2 12 C 2 15.594784 3.7573877 18.551333 8 18.949219 L 8 23.242188 L 4.7382812 24.03125 L 4.7382812 24.033203 A 1.0001 1.0001 0 0 0 5 26 L 8.8320312 26 A 1.0001 1.0001 0 0 0 9.1582031 26 L 13 26 A 1.0001 1.0001 0 0 0 13.261719 24.03125 L 10 23.242188 L 10 18.949219 C 14.242612 18.551333 16 15.594784 16 12 C 16 8 14 4 14 4 L 9 4 L 4 4 z M 19 4 C 18.448 4 18 4.448 18 5 L 18 10.785156 C 18 13.127346 19.541266 15.23203 21.734375 15.822266 L 21 23.826172 L 21.007812 23.826172 A 2 2 0 0 0 21 24 A 2 2 0 0 0 23 26 A 2 2 0 0 0 25 24 A 2 2 0 0 0 24.990234 23.826172 L 24.992188 23.826172 L 24.259766 15.833984 C 26.410191 15.274998 28 13.325156 28 11 L 28 5 C 28 4.448 27.552 4 27 4 C 26.448 4 26 4.448 26 5 L 26 10 C 26 10.553 25.552 11 25 11 C 24.448 11 24 10.553 24 10 L 24 5 C 24 4.448 23.552 4 23 4 C 22.448 4 22 4.448 22 5 L 22 10 C 22 10.553 21.552 11 21 11 C 20.448 11 20 10.553 20 10 L 20 5 C 20 4.448 19.552 4 19 4 z M 22.992188 15.996094 C 22.994794 15.996098 22.997395 15.998046 23 15.998047 L 23 22 A 2 2 0 0 0 22.992188 22 L 22.992188 15.996094 z"></path></symbol>
<symbol id="tools" viewBox="0 0 30 30"><path d="M 4 3 L 2 5 L 4 9 L 7 10 L 10.5 13.5 L 12.5 11.5 L 9 8 L 8 5 L 4 3 z M 22.066406 3.0097656 C 20.407875 2.9441875 18.729641 3.5425937 17.462891 4.8085938 C 15.826825 6.4446592 15.680345 8.412418 16.494141 10.263672 L 4.8789062 21.878906 C 3.7069063 23.050906 3.7069062 24.949094 4.8789062 26.121094 C 6.0509062 27.293094 7.9490937 27.293094 9.1210938 26.121094 L 20.736328 14.505859 C 22.587461 15.319359 24.555464 15.171777 26.191406 13.535156 C 27.880406 11.846156 28.381125 9.424875 27.703125 7.296875 L 23.998047 11.003906 L 20.796875 10.203125 L 19.996094 7.0019531 L 23.703125 3.296875 C 23.170875 3.127625 22.61925 3.031625 22.066406 3.0097656 z M 20.521484 17.636719 L 16.757812 21.400391 L 21.576172 26.220703 C 22.616172 27.260703 24.302797 27.260703 25.341797 26.220703 C 26.381797 25.180703 26.381797 23.495078 25.341797 22.455078 L 20.521484 17.636719 z M 7 23 C 7.552 23 8 23.448 8 24 C 8 24.552 7.552 25 7 25 C 6.448 25 6 24.552 6 24 C 6 23.448 6.448 23 7 23 z"></path></symbol>
</svg>